<?xml version="1.0" encoding="utf-8"?>
<!-- Generator: Adobe Illustrator 16.0.3, SVG Export Plug-In . SVG Version: 6.00 Build 0)  -->
<!DOCTYPE svg PUBLIC "-//W3C//DTD SVG 1.1//EN" "http://www.w3.org/Graphics/SVG/1.1/DTD/svg11.dtd">
<svg version="1.1" id="Layer_1" xmlns="http://www.w3.org/2000/svg" xmlns:xlink="http://www.w3.org/1999/xlink" x="0px" y="0px"
	 width="122px" height="81px" viewBox="0 0 122 81" enable-background="new 0 0 122 81" xml:space="preserve">
<title>sync</title>
<desc>Created with Sketch.</desc>
<g id="sync">
	<path id="Shape" fill="#B9D9FF" stroke="#2470C8" stroke-width="2" d="M4.576,70.879l0.428-7.608
		c0.02-0.346,0.165-0.672,0.407-0.915l19.538-19.537c-2.124-5.628-0.819-12.049,3.389-16.257c5.968-5.968,15.78-5.866,21.873,0.227
		c6.094,6.094,6.196,15.906,0.229,21.873c-4.208,4.209-10.628,5.514-16.257,3.39l-2.694,2.692c-0.151,0.151-0.334,0.268-0.537,0.335
		l-3.076,0.225l-0.224,3.075c-0.141,0.412-0.461,0.732-0.873,0.872l-3.075,0.225l-0.226,3.076c-0.139,0.411-0.461,0.732-0.871,0.871
		l-3.075,0.225l-0.225,3.076c-0.14,0.411-0.461,0.731-0.872,0.87l-3.076,0.226l-0.225,3.075c-0.072,0.207-0.187,0.39-0.337,0.54
		l-0.154,0.153c-0.243,0.244-0.568,0.39-0.915,0.409L6.12,72.423c-0.414,0.023-0.82-0.132-1.116-0.428
		C4.708,71.698,4.552,71.292,4.576,70.879z M46.77,34.65c1.49-1.49,1.49-3.915,0.001-5.404c-1.49-1.49-3.914-1.489-5.404,0.001
		c-1.49,1.491-1.49,3.915-0.001,5.404C42.855,36.141,45.279,36.14,46.77,34.65z"/>
</g>
<g>
	<path fill="#B9D9FF" stroke="#2470C8" stroke-width="2" d="M117.412,67.133c0,1.632-1.321,2.953-2.952,2.953H68.009
		c-1.631,0-2.952-1.321-2.952-2.953v-46.45c0-1.63,1.321-2.952,2.952-2.952h46.451c1.631,0,2.952,1.322,2.952,2.952V67.133z"/>
	<path fill="#2470C8" d="M74.816,38.167c0,0.296-0.355,0.536-0.793,0.536H61.541c-0.438,0-0.793-0.24-0.793-0.536v-8.418
		c0-0.296,0.355-0.535,0.793-0.535h12.482c0.438,0,0.793,0.239,0.793,0.535V38.167z"/>
	
		<rect x="70.797" y="24.919" fill="none" stroke="#2470C8" stroke-width="2" stroke-miterlimit="10" width="40.188" height="38.178"/>
	<path fill="#2470C8" d="M74.816,59.122c0,0.296-0.355,0.536-0.793,0.536H61.541c-0.438,0-0.793-0.24-0.793-0.536v-8.419
		c0-0.296,0.355-0.535,0.793-0.535h12.482c0.438,0,0.793,0.239,0.793,0.535V59.122z"/>
	<circle fill="none" stroke="#2470C8" stroke-width="2" stroke-miterlimit="10" cx="91.89" cy="43.854" r="12.493"/>
	<line fill="none" stroke="#2470C8" stroke-width="2" stroke-miterlimit="10" x1="91.889" y1="31.362" x2="91.889" y2="37.837"/>
	<line fill="none" stroke="#2470C8" stroke-width="2" stroke-miterlimit="10" x1="91.889" y1="50.168" x2="91.889" y2="56.643"/>
	<line fill="none" stroke="#2470C8" stroke-width="2" stroke-miterlimit="10" x1="87.355" y1="47.88" x2="82.777" y2="52.457"/>
	<line fill="none" stroke="#2470C8" stroke-width="2" stroke-miterlimit="10" x1="100.752" y1="35.257" x2="96.174" y2="39.834"/>
	<line fill="none" stroke="#2470C8" stroke-width="2" stroke-miterlimit="10" x1="95.911" y1="48.418" x2="100.488" y2="52.996"/>
	<line fill="none" stroke="#2470C8" stroke-width="2" stroke-miterlimit="10" x1="83.289" y1="35.021" x2="87.866" y2="39.6"/>
	<line fill="none" stroke="#2470C8" stroke-width="2" stroke-miterlimit="10" x1="79.396" y1="43.855" x2="85.871" y2="43.855"/>
	<line fill="none" stroke="#2470C8" stroke-width="2" stroke-miterlimit="10" x1="97.908" y1="43.855" x2="104.383" y2="43.855"/>
	<circle fill="#2470C8" cx="91.86" cy="43.855" r="3.337"/>
</g>
<g>
	<path fill="#2470C8" d="M30.219,18.521l-4.779-8.277l-1.732,1l4.778,8.276C29.044,19.157,29.623,18.826,30.219,18.521z"/>
	<path fill="#2470C8" d="M19.499,36.02c0-0.338,0.034-0.667,0.051-1H9.98v2h9.569C19.533,36.686,19.499,36.357,19.499,36.02z"/>
	<path fill="#2470C8" d="M22.667,25.338l-8.275-4.778l-1,1.732l8.276,4.778C21.973,26.476,22.304,25.897,22.667,25.338z"/>
	<path fill="#2470C8" d="M39.166,16.353c0.338,0,0.667,0.034,1.001,0.051v-9.57h-2v9.569C38.5,16.386,38.828,16.353,39.166,16.353z"
		/>
	<path fill="#2470C8" d="M49.847,19.521l4.778-8.276l-1.732-1l-4.779,8.277C48.709,18.826,49.288,19.158,49.847,19.521z"/>
	<path fill="#2470C8" d="M39.166,55.686c-0.337,0-0.666-0.033-0.999-0.051v9.57h2v-9.57C39.833,55.652,39.503,55.686,39.166,55.686z
		"/>
	<path fill="#2470C8" d="M48.114,53.518l4.779,8.277l1.732-1l-4.779-8.277C49.288,52.881,48.709,53.212,48.114,53.518z"/>
</g>
</svg>
