<?xml version="1.0" encoding="utf-8"?>
<!-- Generator: Adobe Illustrator 16.0.3, SVG Export Plug-In . SVG Version: 6.00 Build 0)  -->
<!DOCTYPE svg PUBLIC "-//W3C//DTD SVG 1.1//EN" "http://www.w3.org/Graphics/SVG/1.1/DTD/svg11.dtd">
<svg version="1.1" id="Layer_1" xmlns="http://www.w3.org/2000/svg" xmlns:xlink="http://www.w3.org/1999/xlink" x="0px" y="0px"
	 width="122px" height="81px" viewBox="0 0 122 81" enable-background="new 0 0 122 81" xml:space="preserve">
<title>sync</title>
<desc>Created with Sketch.</desc>
<g id="sync">
	<path id="Shape" fill="#B9D9FF" stroke="#2470C8" stroke-width="2" d="M43.761,78.022l0.507-9.019
		c0.023-0.409,0.195-0.796,0.483-1.083l23.156-23.156c-2.517-6.671-0.969-14.281,4.018-19.269c7.073-7.073,18.702-6.952,25.924,0.27
		c7.223,7.222,7.345,18.852,0.271,25.922c-4.989,4.989-12.597,6.536-19.271,4.02l-3.191,3.19c-0.18,0.18-0.396,0.316-0.637,0.397
		l-3.646,0.265l-0.265,3.646c-0.168,0.487-0.548,0.868-1.034,1.034l-3.646,0.267l-0.267,3.646c-0.165,0.486-0.545,0.867-1.032,1.032
		l-3.646,0.267l-0.267,3.646c-0.165,0.485-0.546,0.865-1.032,1.03l-3.646,0.268l-0.267,3.644c-0.085,0.246-0.221,0.464-0.399,0.642
		l-0.183,0.182c-0.288,0.289-0.673,0.462-1.084,0.484l-9.018,0.505c-0.49,0.028-0.972-0.155-1.322-0.507
		S43.731,78.511,43.761,78.022z M93.77,35.083c1.767-1.767,1.767-4.641,0.002-6.405c-1.766-1.766-4.639-1.765-6.405,0.001
		c-1.767,1.767-1.767,4.64,0,6.405C89.13,36.85,92.002,36.85,93.77,35.083z"/>
</g>
<g>
	<path fill="#B9D9FF" stroke="#2470C8" stroke-width="2" d="M53.382,46.432c0,1.422-1.151,2.572-2.571,2.572H10.356
		c-1.42,0-2.571-1.15-2.571-2.572V5.978c0-1.42,1.151-2.571,2.571-2.571h40.455c1.42,0,2.571,1.151,2.571,2.571V46.432z"/>
	<path fill="#2470C8" d="M16.285,21.205c0,0.258-0.31,0.467-0.69,0.467H4.723c-0.381,0-0.69-0.209-0.69-0.467v-7.332
		c0-0.257,0.31-0.466,0.69-0.466h10.871c0.381,0,0.69,0.208,0.69,0.466V21.205z"/>
	<rect x="12.785" y="9.668" fill="none" stroke="#2470C8" stroke-width="2" stroke-miterlimit="10" width="35" height="33.25"/>
	<path fill="#2470C8" d="M16.285,39.455c0,0.258-0.31,0.467-0.69,0.467H4.723c-0.381,0-0.69-0.209-0.69-0.467v-7.332
		c0-0.258,0.31-0.466,0.69-0.466h10.871c0.381,0,0.69,0.208,0.69,0.466V39.455z"/>
	<circle fill="none" stroke="#2470C8" stroke-width="2" stroke-miterlimit="10" cx="31.154" cy="26.158" r="10.88"/>
	<line fill="none" stroke="#2470C8" stroke-width="2" stroke-miterlimit="10" x1="31.154" y1="15.279" x2="31.154" y2="20.918"/>
	<line fill="none" stroke="#2470C8" stroke-width="2" stroke-miterlimit="10" x1="31.154" y1="31.657" x2="31.154" y2="37.296"/>
	<line fill="none" stroke="#2470C8" stroke-width="2" stroke-miterlimit="10" x1="27.206" y1="29.664" x2="23.218" y2="33.65"/>
	<line fill="none" stroke="#2470C8" stroke-width="2" stroke-miterlimit="10" x1="38.873" y1="18.671" x2="34.885" y2="22.657"/>
	<line fill="none" stroke="#2470C8" stroke-width="2" stroke-miterlimit="10" x1="34.657" y1="30.133" x2="38.643" y2="34.12"/>
	<line fill="none" stroke="#2470C8" stroke-width="2" stroke-miterlimit="10" x1="23.664" y1="18.466" x2="27.65" y2="22.453"/>
	<line fill="none" stroke="#2470C8" stroke-width="2" stroke-miterlimit="10" x1="20.274" y1="26.159" x2="25.913" y2="26.159"/>
	<line fill="none" stroke="#2470C8" stroke-width="2" stroke-miterlimit="10" x1="36.396" y1="26.159" x2="42.035" y2="26.159"/>
	<circle fill="#2470C8" cx="31.128" cy="26.159" r="2.906"/>
</g>
<g>
	<path fill="#2470C8" d="M73.591,15.884l-5.772-10l-2.093,1.208l5.772,9.998C72.174,16.652,72.872,16.252,73.591,15.884z"/>
	<path fill="#2470C8" d="M60.643,37.022c0-0.408,0.041-0.806,0.062-1.208H49.143v2.416h11.56
		C60.683,37.827,60.643,37.43,60.643,37.022z"/>
	<path fill="#2470C8" d="M64.469,24.119l-9.997-5.771l-1.208,2.093l9.998,5.772C63.63,25.493,64.031,24.794,64.469,24.119z"/>
	<path fill="#2470C8" d="M105.538,26.213l9.998-5.773l-1.208-2.093l-9.997,5.772C104.769,24.794,105.169,25.493,105.538,26.213z"/>
	<path fill="#2470C8" d="M84.399,13.264c0.409,0,0.807,0.041,1.209,0.062V1.765h-2.416v11.56
		C83.596,13.305,83.991,13.264,84.399,13.264z"/>
	<path fill="#2470C8" d="M97.304,17.091l5.771-9.998l-2.093-1.208l-5.772,9.999C95.929,16.253,96.628,16.653,97.304,17.091z"/>
	<path fill="#2470C8" d="M84.399,60.779c-0.408,0-0.804-0.039-1.207-0.061v11.561h2.416V60.719
		C85.206,60.74,84.809,60.779,84.399,60.779z"/>
	<path fill="#2470C8" d="M108.095,35.814c0.021,0.402,0.062,0.8,0.062,1.208c0,0.407-0.04,0.805-0.062,1.207h11.562v-2.416H108.095z
		"/>
	<path fill="#2470C8" d="M104.332,49.925l9.996,5.772l1.208-2.093l-9.998-5.774C105.169,48.551,104.769,49.25,104.332,49.925z"/>
	<path fill="#2470C8" d="M95.21,58.161l5.772,9.998l2.093-1.208l-5.771-9.998C96.628,57.392,95.929,57.79,95.21,58.161z"/>
</g>
</svg>
