<?xml version="1.0" encoding="UTF-8" standalone="no"?>
<svg width="35px" height="24px" viewBox="0 0 35 24" version="1.1" xmlns="http://www.w3.org/2000/svg" xmlns:xlink="http://www.w3.org/1999/xlink">
    <!-- Generator: Sketch 50.2 (55047) - http://www.bohemiancoding.com/sketch -->
    <title>best-key</title>
    <desc>Created with Sketch.</desc>
    <defs></defs>
    <g id="best-key" stroke="none" stroke-width="1" fill="none" fill-rule="evenodd">
        <g id="key" fill="#2470C8" fill-rule="nonzero" stroke="#2470C8">
            <path d="M23.5,8.25004688 C23.5,3.95634635 20.0436096,0.499955958 15.7499583,0.5 C11.4697469,0.500044034 8,3.96980458 8,8.25 C8,9.08476928 8.13231057,9.90165045 8.38879855,10.6794055 L8.48523317,10.9718267 L8.26750652,11.1895534 L0.683077043,18.7739829 C0.565865282,18.8912207 0.5,19.05024 0.5,19.2159844 L0.5,22.875 C0.5,23.2201858 0.77981425,23.5 1.125,23.5 L6.375,23.5 C6.72018575,23.5 7,23.2201858 7,22.875 L7,20.5 L9.375,20.5 C9.72018575,20.5 10,20.2201858 10,19.875 L10,17.5 L10.5,17.5 L12.2448461,17.5 C12.423365,17.5000064 12.593365,17.4236685 12.7119642,17.2902434 L14.0256632,15.8123046 L14.3039391,15.86481 C14.7788933,15.9544248 15.2620832,16 15.75,16 C20.0302112,16 23.5,12.5302384 23.5,8.25004688 Z M15.1521739,6.26086957 C15.1521739,4.83211849 16.3103794,3.67391304 17.7391304,3.67391304 C19.1678815,3.67391304 20.326087,4.83211849 20.326087,6.26086957 C20.326087,7.68962064 19.1678815,8.84782609 17.7391304,8.84782609 C16.3103794,8.84782609 15.1521739,7.68962064 15.1521739,6.26086957 Z" id="Shape"></path>
        </g>
        <g id="star" transform="translate(21.000000, 5.000000)" fill="#2470C8" fill-rule="nonzero" stroke="#FFFFFF">
            <path d="M2.58638148,16.8470958 L-0.904485396,18.3496626 L2.69794298,9.19002943 L3.22660592,9.6076511 C4.22680054,10.3977631 5.58076712,10.8727361 7.02347789,10.9405545 L7.71604892,10.9731106 L4.11442516,20.3085157 L2.58638148,16.8470958 Z" id="Shape"></path>
            <path d="M11.4136185,16.8470958 L9.88557484,20.3085157 L6.28395138,10.9731114 L6.97652153,10.9405546 C8.39015688,10.8741013 9.68388483,10.4142104 10.7857631,9.59818916 L11.3099172,9.21001482 L14.9044854,18.3496626 L11.4136185,16.8470958 Z" id="Shape"></path>
            <path d="M13.5,5.5 C13.5,8.84187892 10.6002316,11.5 7,11.5 C3.39976845,11.5 0.5,8.84187892 0.5,5.5 C0.5,2.15812108 3.39976845,-0.5 7,-0.5 C10.6002316,-0.5 13.5,2.15812108 13.5,5.5 Z M8.29963124,7.34918969 L7.70946446,5.90643405 L8.55635655,5.38888889 L7.66437885,5.38888889 L7.00003486,3.76496521 L6.33569087,5.38888889 L5.44371317,5.38888889 L6.29061874,5.90644229 L5.70041944,7.34912653 L6.99996321,6.56630917 L8.29963124,7.34918969 Z" id="Shape"></path>
        </g>
    </g>
</svg>